<?xml version="1.0" encoding="UTF-8" standalone="no"?><!DOCTYPE svg PUBLIC "-//W3C//DTD SVG 1.1//EN" "http://www.w3.org/Graphics/SVG/1.1/DTD/svg11.dtd"><svg width="100%" height="100%" viewBox="0 0 1366 954" version="1.1" xmlns="http://www.w3.org/2000/svg" xmlns:xlink="http://www.w3.org/1999/xlink" xml:space="preserve" xmlns:serif="http://www.serif.com/" style="fill-rule:evenodd;clip-rule:evenodd;stroke-linejoin:round;stroke-miterlimit:2;"><g><path d="M970.798,79.851l-30.591,-23.713l106.452,-56.137l-47.845,51.733l30.591,23.713l-106.453,56.138l47.845,-51.734Z" style="fill:#fac90a;fill-rule:nonzero;"/><path d="M417.083,79.851l30.591,-23.713l-106.452,-56.137l47.845,51.733l-30.591,23.713l106.453,56.138l-47.845,-51.734Z" style="fill:#fac90a;fill-rule:nonzero;"/><path d="M1309.802,351.207l55.75,134.641l-232.004,-5.777l19.634,41.369l-283.666,-45.853l280.683,-54.108l-19.022,-47.956l178.623,-22.317Z" style="fill:#00ffb0;"/><path d="M55.75,351.207l-55.75,134.641l232.004,-5.777l-19.634,41.369l283.666,-45.853l-280.683,-54.108l19.022,-47.956l-178.623,-22.317Z" style="fill:#00ffb0;"/><path d="M1132.153,49.411l69.321,90.884c0,0 -86.649,143.692 -309.628,202.569c0,0 189.775,-108.08 240.307,-293.453Z" style="fill:#1c08c9;"/><g><path d="M512.993,737.542c0.005,-0.018 0.013,-0.034 0.017,-0.052c0.019,0.013 0.041,0.024 0.061,0.038l102.438,-18.058c0.005,-0.018 0.012,-0.034 0.017,-0.052c0.02,0.013 0.041,0.024 0.061,0.038l66.372,-11.7c-1.174,-3.671 -10.331,-5.207 -21.449,-3.718c-1.68,-5.897 -7.582,-9.686 -13.754,-8.598c-1.681,0.296 -3.218,0.93 -4.558,1.812c-3.282,-7.394 -11.262,-11.906 -19.588,-10.438c-5.652,0.996 -10.21,4.532 -12.736,9.22c-5.383,-5.66 -13.407,-8.606 -21.677,-7.149c-4.086,0.72 -7.749,2.43 -10.785,4.84c-6.319,-10.35 -18.525,-16.319 -31.188,-14.087c-13.076,2.305 -22.704,12.66 -24.704,25.069c-0.474,0.046 -0.948,0.094 -1.426,0.178c-5.652,0.996 -10.209,4.532 -12.735,9.22c-5.383,-5.66 -13.407,-8.606 -21.678,-7.149c-13.117,2.312 -21.875,14.82 -19.563,27.936c0.195,1.109 0.47,2.183 0.805,3.226c-0.502,0.077 -1.006,0.158 -1.513,0.247c-12.384,2.183 -21.912,7.217 -21.747,11.397l69.331,-12.222Z" style="fill:#fff;fill-rule:nonzero;"/><g opacity="0.2"><path d="M548.612,731.263c0.003,-0.01 0.006,-0.02 0.01,-0.028c0.01,0.007 0.023,0.013 0.034,0.021l57.287,-10.098c0.003,-0.01 0.007,-0.02 0.01,-0.028c0.011,0.007 0.023,0.013 0.035,0.02l37.118,-6.543c-0.656,-2.053 -5.777,-2.911 -11.995,-2.08c-0.94,-3.297 -4.24,-5.417 -7.691,-4.808c-0.941,0.166 -1.8,0.52 -2.55,1.014c-1.836,-4.136 -6.298,-6.659 -10.955,-5.838c-3.161,0.557 -5.709,2.534 -7.122,5.156c-3.011,-3.166 -7.498,-4.813 -12.123,-3.998c-2.284,0.403 -4.333,1.359 -6.032,2.707c-3.534,-5.788 -10.36,-9.127 -17.441,-7.879c-7.313,1.289 -12.697,7.08 -13.815,14.021c-0.265,0.025 -0.531,0.052 -0.798,0.099c-3.161,0.557 -5.709,2.534 -7.122,5.156c-3.011,-3.166 -7.498,-4.813 -12.123,-3.998c-7.335,1.293 -12.233,8.288 -10.94,15.624c0.109,0.619 0.262,1.22 0.449,1.803c-0.28,0.043 -0.562,0.088 -0.846,0.138c-6.926,1.221 -12.254,4.036 -12.162,6.373l38.773,-6.835Z" style="fill:#52c3f1;fill-rule:nonzero;"/></g><g opacity="0.2"><path d="M563.427,728.651c0.001,-0.005 0.003,-0.009 0.005,-0.014c0.005,0.004 0.011,0.007 0.016,0.01l26.823,-4.728c0.002,-0.005 0.004,-0.009 0.005,-0.014c0.005,0.004 0.011,0.007 0.016,0.01l17.38,-3.064c-0.307,-0.961 -2.705,-1.363 -5.617,-0.973c-0.44,-1.545 -1.985,-2.536 -3.602,-2.251c-0.44,0.078 -0.842,0.243 -1.193,0.474c-0.859,-1.936 -2.949,-3.117 -5.129,-2.733c-1.48,0.261 -2.673,1.186 -3.334,2.414c-1.41,-1.483 -3.511,-2.254 -5.676,-1.872c-1.07,0.189 -2.029,0.636 -2.824,1.267c-1.654,-2.71 -4.851,-4.274 -8.167,-3.689c-3.424,0.604 -5.946,3.315 -6.469,6.565c-0.124,0.011 -0.248,0.024 -0.373,0.046c-1.48,0.261 -2.673,1.186 -3.334,2.414c-1.41,-1.483 -3.511,-2.254 -5.676,-1.872c-3.435,0.606 -5.728,3.88 -5.123,7.315c0.051,0.29 0.123,0.571 0.211,0.844c-0.132,0.021 -0.263,0.041 -0.397,0.065c-3.242,0.572 -5.737,1.89 -5.694,2.984l18.154,-3.2Z" style="fill:#52c3f1;fill-rule:nonzero;"/></g><g opacity="0.2"><path d="M487.685,730.304c2.037,-0.359 1.812,-3.598 -0.247,-3.235c-2.037,0.359 -1.811,3.598 0.247,3.235" style="fill:#52c3f1;fill-rule:nonzero;"/></g><g opacity="0.2"><path d="M628.09,700.271c2.037,-0.359 1.812,-3.598 -0.247,-3.235c-2.037,0.359 -1.811,3.598 0.247,3.235" style="fill:#52c3f1;fill-rule:nonzero;"/></g><g opacity="0.2"><path d="M544.384,700.167c2.716,-0.479 2.415,-4.798 -0.329,-4.314c-2.716,0.479 -2.416,4.798 0.329,4.314" style="fill:#52c3f1;fill-rule:nonzero;"/></g><g opacity="0.2"><path d="M498.877,726.677c2.716,-0.479 2.415,-4.798 -0.329,-4.314c-2.716,0.479 -2.416,4.798 0.329,4.314" style="fill:#52c3f1;fill-rule:nonzero;"/></g></g><path d="M255.728,28.852l-69.321,90.884c0,0 86.649,143.692 309.628,202.569c0,0 -189.775,-108.08 -240.307,-293.453Z" style="fill:#1c08c9;"/><g><path d="M903.959,728.975c0.149,-0.253 0.308,-0.502 0.485,-0.745c-0.484,0.19 -0.982,0.35 -1.475,0.519l-117.304,-26.706c2.29,-7.556 16.315,-11.09 33.611,-9.079c0.089,-0.59 0.176,-1.182 0.311,-1.774c2.898,-12.727 15.564,-20.697 28.293,-17.8c3.595,0.818 6.791,2.437 9.491,4.595c7.235,-15.436 24.457,-24.311 41.759,-20.372c18.973,4.319 31.189,22.489 28.438,41.417c1.737,0 3.497,0.173 5.264,0.575c11.539,2.627 19.137,13.286 18.303,24.739c18.109,4.993 31.324,14.392 31.968,22.649l-79.142,-18.018Z" style="fill:#fff;fill-rule:nonzero;"/><g opacity="0.2"><path d="M891.458,726.129c0.072,-0.126 0.152,-0.249 0.24,-0.371c-0.24,0.095 -0.486,0.174 -0.73,0.259l-58.186,-13.247c1.138,-3.747 8.095,-5.5 16.673,-4.502c0.042,-0.293 0.086,-0.588 0.153,-0.881c1.437,-6.314 7.721,-10.267 14.035,-8.829c1.783,0.406 3.369,1.21 4.706,2.28c3.588,-7.656 12.13,-12.058 20.712,-10.104c9.41,2.142 15.47,11.155 14.105,20.543c0.863,0.001 1.736,0.086 2.611,0.285c5.725,1.303 9.492,6.59 9.079,12.271c8.983,2.476 15.536,7.138 15.857,11.234l-39.255,-8.937Z" style="fill:#52c3f1;fill-rule:nonzero;"/></g><g opacity="0.2"><path d="M902.161,680.211c4.292,0.977 6.524,-5.561 2.186,-6.548c-4.292,-0.977 -6.522,5.561 -2.186,6.548" style="fill:#52c3f1;fill-rule:nonzero;"/></g><g opacity="0.2"><path d="M836.653,693.679c4.292,0.977 6.524,-5.561 2.186,-6.548c-4.292,-0.977 -6.522,5.561 -2.186,6.548" style="fill:#52c3f1;fill-rule:nonzero;"/></g></g><g><path d="M552.812,766.197c-9.928,-5.898 -31.431,-4.053 -53.692,5.5c-7.677,3.294 -14.627,7.156 -20.545,11.263c-10.062,-10.014 -25.569,-13.482 -39.413,-7.541c-5.029,2.158 -9.306,5.334 -12.703,9.177c-9.903,-11.732 -26.662,-16.172 -41.504,-9.803c-12.29,5.274 -20.108,16.608 -21.483,29.013c-11.681,-6.81 -26.324,-8.191 -39.705,-2.449c-1.816,0.779 -3.546,1.676 -5.199,2.66c-17.089,-24.658 -49.703,-34.739 -78.343,-22.449c-29.763,12.771 -44.966,45.299 -36.886,75.695c-4.823,0.335 -9.672,1.461 -14.366,3.476c-21.348,9.161 -31.765,33.143 -24.416,54.774c-2.341,0.843 -4.702,1.766 -7.074,2.784c-22.261,9.552 -38.414,23.865 -40.98,35.125l436.31,-187.223Z" style="fill:#fff;fill-rule:nonzero;"/><g opacity="0.2"><path d="M321.886,865.289c-0.027,-0.271 -0.043,-0.543 -0.042,-0.821c-0.259,0.407 -0.544,0.795 -0.82,1.191l-102.318,43.905c-2.4,-6.901 6.169,-17.185 20.205,-25.099c-0.256,-0.49 -0.513,-0.98 -0.734,-1.496c-4.764,-11.102 0.374,-23.965 11.477,-28.73c3.136,-1.346 6.409,-1.874 9.603,-1.728c-2.992,-15.49 5.061,-31.509 20.151,-37.985c16.549,-7.101 35.583,-0.161 43.835,15.501c1.299,-0.946 2.712,-1.777 4.251,-2.437c10.065,-4.319 21.556,-0.482 27.169,8.543c16.269,-6.128 31.276,-6.293 36.254,-0.466l-69.03,29.621Z" style="fill:#52c3f1;fill-rule:nonzero;"/></g><g opacity="0.2"><path d="M303.555,873.155c-0.015,-0.144 -0.023,-0.29 -0.022,-0.439c-0.139,0.218 -0.292,0.425 -0.44,0.637l-54.707,23.475c-1.283,-3.69 3.298,-9.188 10.804,-13.419c-0.137,-0.264 -0.275,-0.524 -0.394,-0.801c-2.547,-5.936 0.2,-12.814 6.137,-15.362c1.677,-0.72 3.427,-1.003 5.134,-0.924c-1.6,-8.284 2.705,-16.847 10.775,-20.31c8.847,-3.796 19.026,-0.086 23.437,8.288c0.694,-0.506 1.449,-0.949 2.273,-1.303c5.381,-2.309 11.526,-0.257 14.525,4.568c8.7,-3.275 16.724,-3.365 19.385,-0.248l-36.909,15.838Z" style="fill:#52c3f1;fill-rule:nonzero;"/></g><g opacity="0.2"><path d="M399.842,807.672c4.315,-1.852 2.133,-8.892 -2.226,-7.021c-4.315,1.852 -2.133,8.892 2.226,7.021" style="fill:#52c3f1;fill-rule:nonzero;"/></g><g opacity="0.2"><path d="M195.366,899.865c4.315,-1.852 2.135,-8.892 -2.224,-7.022c-4.317,1.852 -2.135,8.892 2.224,7.022" style="fill:#52c3f1;fill-rule:nonzero;"/></g><g opacity="0.2"><path d="M238.028,828.153c4.315,-1.852 2.135,-8.892 -2.226,-7.021c-4.315,1.852 -2.135,8.892 2.226,7.021" style="fill:#52c3f1;fill-rule:nonzero;"/></g><g opacity="0.2"><path d="M258.135,806.929c3.237,-1.389 1.602,-6.668 -1.669,-5.265c-3.237,1.389 -1.6,6.668 1.669,5.265" style="fill:#52c3f1;fill-rule:nonzero;"/></g><g opacity="0.2"><path d="M437.412,801.877c3.237,-1.389 1.602,-6.668 -1.669,-5.265c-3.237,1.389 -1.6,6.668 1.669,5.265" style="fill:#52c3f1;fill-rule:nonzero;"/></g></g><g><path d="M849.369,766.197c9.928,-5.898 31.431,-4.053 53.692,5.5c7.677,3.294 14.627,7.156 20.545,11.263c10.062,-10.014 25.569,-13.482 39.413,-7.541c5.029,2.158 9.306,5.334 12.703,9.177c9.903,-11.732 26.662,-16.172 41.504,-9.803c12.29,5.274 20.108,16.608 21.483,29.013c11.681,-6.81 26.324,-8.191 39.705,-2.449c1.816,0.779 3.546,1.676 5.199,2.66c17.089,-24.658 49.703,-34.739 78.343,-22.449c29.763,12.771 44.966,45.299 36.886,75.695c4.823,0.335 9.672,1.461 14.366,3.476c21.348,9.161 31.765,33.143 24.416,54.774c2.341,0.843 4.702,1.766 7.074,2.784c22.261,9.552 38.414,23.865 40.98,35.125l-436.31,-187.223Z" style="fill:#fff;fill-rule:nonzero;"/><g opacity="0.2"><path d="M1080.296,865.289c0.027,-0.271 0.043,-0.543 0.042,-0.821c0.259,0.407 0.544,0.795 0.82,1.191l102.318,43.905c2.4,-6.901 -6.169,-17.185 -20.205,-25.099c0.256,-0.49 0.513,-0.98 0.734,-1.496c4.764,-11.102 -0.374,-23.965 -11.477,-28.73c-3.136,-1.346 -6.409,-1.874 -9.603,-1.728c2.992,-15.49 -5.061,-31.509 -20.151,-37.985c-16.549,-7.101 -35.583,-0.161 -43.835,15.501c-1.299,-0.946 -2.712,-1.777 -4.251,-2.437c-10.065,-4.319 -21.556,-0.482 -27.169,8.543c-16.269,-6.128 -31.276,-6.293 -36.254,-0.466l69.03,29.621Z" style="fill:#52c3f1;fill-rule:nonzero;"/></g><g opacity="0.2"><path d="M1098.627,873.155c0.015,-0.144 0.023,-0.29 0.022,-0.439c0.139,0.218 0.292,0.425 0.44,0.637l54.707,23.475c1.283,-3.69 -3.298,-9.188 -10.804,-13.419c0.137,-0.264 0.275,-0.524 0.394,-0.801c2.547,-5.936 -0.2,-12.814 -6.137,-15.362c-1.677,-0.72 -3.427,-1.003 -5.134,-0.924c1.6,-8.284 -2.705,-16.847 -10.775,-20.31c-8.847,-3.796 -19.026,-0.086 -23.437,8.288c-0.694,-0.506 -1.449,-0.949 -2.273,-1.303c-5.381,-2.309 -11.526,-0.257 -14.525,4.568c-8.7,-3.275 -16.724,-3.365 -19.385,-0.248l36.909,15.838Z" style="fill:#52c3f1;fill-rule:nonzero;"/></g><g opacity="0.2"><path d="M1002.339,807.672c-4.315,-1.852 -2.133,-8.892 2.226,-7.021c4.315,1.852 2.133,8.892 -2.226,7.021" style="fill:#52c3f1;fill-rule:nonzero;"/></g><g opacity="0.2"><path d="M1206.815,899.865c-4.315,-1.852 -2.135,-8.892 2.224,-7.022c4.317,1.852 2.135,8.892 -2.224,7.022" style="fill:#52c3f1;fill-rule:nonzero;"/></g><g opacity="0.2"><path d="M1164.154,828.153c-4.315,-1.852 -2.135,-8.892 2.226,-7.021c4.315,1.852 2.135,8.892 -2.226,7.021" style="fill:#52c3f1;fill-rule:nonzero;"/></g><g opacity="0.2"><path d="M1144.046,806.929c-3.237,-1.389 -1.602,-6.668 1.669,-5.265c3.237,1.389 1.6,6.668 -1.669,5.265" style="fill:#52c3f1;fill-rule:nonzero;"/></g><g opacity="0.2"><path d="M964.77,801.877c-3.237,-1.389 -1.602,-6.668 1.669,-5.265c3.237,1.389 1.6,6.668 -1.669,5.265" style="fill:#52c3f1;fill-rule:nonzero;"/></g></g><g><path d="M884.383,622.959c6.251,-4.803 20.975,-5.296 36.838,-0.627c5.471,1.61 10.495,3.664 14.839,5.967c6.008,-7.604 16.237,-11.212 26.102,-8.308c3.584,1.055 6.74,2.86 9.355,5.19c5.76,-8.755 16.76,-13.124 27.336,-10.011c8.758,2.578 14.976,9.626 16.915,17.923c7.365,-5.563 17.178,-7.687 26.713,-4.881c1.294,0.381 2.539,0.849 3.74,1.381c9.583,-18.099 30.87,-27.578 51.279,-21.571c21.209,6.242 34.152,27.056 31.141,48.314c3.296,-0.164 6.674,0.206 10.019,1.191c15.213,4.477 24.219,19.888 20.992,35.145c1.655,0.382 3.33,0.816 5.02,1.313c15.863,4.669 27.973,13.06 30.625,20.483l-310.915,-91.508Z" style="fill:#fff;fill-rule:nonzero;"/><g opacity="0.2"><path d="M1048.942,671.392c-0.003,-0.186 -0.015,-0.372 -0.038,-0.56c0.209,0.254 0.433,0.495 0.652,0.74l72.912,21.459c1.067,-4.872 -5.575,-11.148 -15.731,-15.373c0.133,-0.353 0.268,-0.706 0.376,-1.074c2.328,-7.911 -2.197,-16.213 -10.109,-18.542c-2.235,-0.658 -4.496,-0.751 -6.649,-0.393c0.771,-10.742 -5.986,-20.946 -16.74,-24.111c-11.793,-3.471 -24.131,2.777 -28.454,14.062c-0.957,-0.536 -1.982,-0.984 -3.079,-1.307c-7.173,-2.111 -14.65,1.422 -17.722,7.994c-11.524,-2.834 -21.709,-1.728 -24.611,2.625l49.191,14.478Z" style="fill:#52c3f1;fill-rule:nonzero;"/></g><g opacity="0.2"><path d="M1062.005,675.237c-0.002,-0.099 -0.008,-0.199 -0.021,-0.299c0.112,0.136 0.232,0.265 0.35,0.396l38.984,11.474c0.571,-2.605 -2.981,-5.96 -8.412,-8.219c0.072,-0.19 0.144,-0.377 0.202,-0.575c1.245,-4.23 -1.175,-8.669 -5.405,-9.914c-1.195,-0.352 -2.404,-0.402 -3.555,-0.21c0.412,-5.744 -3.2,-11.2 -8.951,-12.892c-6.305,-1.856 -12.902,1.485 -15.213,7.519c-0.512,-0.287 -1.059,-0.526 -1.647,-0.699c-3.834,-1.128 -7.833,0.761 -9.475,4.274c-6.163,-1.514 -11.608,-0.924 -13.159,1.404l26.301,7.741Z" style="fill:#52c3f1;fill-rule:nonzero;"/></g><g opacity="0.2"><path d="M991.43,638.663c-3.075,-0.905 -2.167,-5.854 0.939,-4.94c3.075,0.905 2.167,5.854 -0.939,4.94" style="fill:#52c3f1;fill-rule:nonzero;"/></g><g opacity="0.2"><path d="M1137.501,684.565c-3.075,-0.905 -2.168,-5.854 0.938,-4.94c3.076,0.905 2.168,5.854 -0.938,4.94" style="fill:#52c3f1;fill-rule:nonzero;"/></g><g opacity="0.2"><path d="M1102.768,639.419c-3.075,-0.905 -2.168,-5.854 0.939,-4.94c3.075,0.905 2.168,5.854 -0.939,4.94" style="fill:#52c3f1;fill-rule:nonzero;"/></g><g opacity="0.2"><path d="M1087.418,626.665c-2.306,-0.679 -1.627,-4.39 0.704,-3.704c2.306,0.679 1.626,4.39 -0.704,3.704" style="fill:#52c3f1;fill-rule:nonzero;"/></g><g opacity="0.2"><path d="M965.495,637.783c-2.306,-0.679 -1.627,-4.39 0.704,-3.704c2.306,0.679 1.626,4.39 -0.704,3.704" style="fill:#52c3f1;fill-rule:nonzero;"/></g></g><g><path d="M554.985,642.768c-6.844,-6.437 -24.248,-8.765 -43.613,-5.107c-6.679,1.262 -12.88,3.102 -18.304,5.32c-6.224,-9.729 -17.928,-15.219 -29.971,-12.944c-4.375,0.826 -8.332,2.594 -11.709,5.047c-5.794,-11.065 -18.321,-17.549 -31.233,-15.11c-10.691,2.02 -18.9,9.642 -22.182,19.252c-8.075,-7.469 -19.461,-11.15 -31.102,-8.952c-1.58,0.298 -3.112,0.706 -4.599,1.195c-9.221,-22.599 -33.344,-36.36 -58.258,-31.654c-25.891,4.891 -43.706,28.041 -42.653,53.608c-3.889,-0.585 -7.939,-0.546 -12.023,0.225c-18.571,3.508 -31.076,20.717 -29.057,39.193c-2.008,0.257 -4.046,0.573 -6.109,0.963c-19.365,3.658 -34.72,12.175 -38.745,20.665l379.555,-71.7Z" style="fill:#fff;fill-rule:nonzero;"/><g opacity="0.2"><path d="M354.096,680.717c0.026,-0.22 0.062,-0.439 0.111,-0.659c-0.278,0.277 -0.573,0.535 -0.861,0.801l-89.009,16.814c-0.688,-5.905 7.932,-12.56 20.476,-16.368c-0.116,-0.435 -0.234,-0.869 -0.319,-1.318c-1.824,-9.658 4.526,-18.967 14.185,-20.792c2.728,-0.515 5.421,-0.358 7.931,0.322c0.357,-12.83 9.58,-24.132 22.707,-26.611c14.397,-2.72 28.289,6.151 32.078,20.046c1.199,-0.522 2.467,-0.932 3.806,-1.185c8.756,-1.654 17.205,3.421 20.07,11.579c14.002,-1.996 25.95,0.521 28.875,6.028l-60.051,11.344Z" style="fill:#52c3f1;fill-rule:nonzero;"/></g><g opacity="0.2"><path d="M338.15,683.729c0.014,-0.117 0.033,-0.235 0.06,-0.352c-0.149,0.148 -0.307,0.286 -0.462,0.428l-47.591,8.99c-0.368,-3.157 4.241,-6.715 10.949,-8.751c-0.063,-0.234 -0.126,-0.465 -0.171,-0.705c-0.976,-5.164 2.42,-10.142 7.584,-11.117c1.459,-0.276 2.898,-0.192 4.241,0.172c0.191,-6.861 5.121,-12.903 12.141,-14.229c7.697,-1.454 15.125,3.289 17.151,10.718c0.641,-0.279 1.318,-0.498 2.035,-0.634c4.681,-0.884 9.199,1.83 10.73,6.191c7.488,-1.066 13.876,0.279 15.439,3.224l-32.108,6.065Z" style="fill:#52c3f1;fill-rule:nonzero;"/></g><g opacity="0.2"><path d="M426.177,648.714c3.754,-0.709 3.263,-6.685 -0.529,-5.969c-3.754,0.709 -3.263,6.685 0.529,5.969" style="fill:#52c3f1;fill-rule:nonzero;"/></g><g opacity="0.2"><path d="M247.513,685.851c3.754,-0.709 3.265,-6.686 -0.527,-5.969c-3.755,0.709 -3.265,6.686 0.527,5.969" style="fill:#52c3f1;fill-rule:nonzero;"/></g><g opacity="0.2"><path d="M294.05,636.425c3.754,-0.709 3.265,-6.686 -0.529,-5.969c-3.754,0.709 -3.265,6.686 0.529,5.969" style="fill:#52c3f1;fill-rule:nonzero;"/></g><g opacity="0.2"><path d="M313.764,623.118c2.816,-0.532 2.449,-5.013 -0.396,-4.476c-2.816,0.532 -2.448,5.013 0.396,4.476" style="fill:#52c3f1;fill-rule:nonzero;"/></g><g opacity="0.2"><path d="M457.037,650.741c2.816,-0.532 2.449,-5.013 -0.396,-4.476c-2.816,0.532 -2.448,5.013 0.396,4.476" style="fill:#52c3f1;fill-rule:nonzero;"/></g></g></g></svg>